<svg width="16" height="17" viewBox="0 0 16 17" fill="none" xmlns="http://www.w3.org/2000/svg">
<path fill-rule="evenodd" clip-rule="evenodd" d="M1.09992 7.31708C5.39488 5.00974 8.25885 3.48859 9.69185 2.75365C13.7834 0.655245 14.6335 0.290729 15.1877 0.278693C15.3095 0.276045 15.5821 0.313289 15.7586 0.489903C15.9076 0.639032 15.9486 0.840484 15.9683 0.981875C15.9879 1.12327 16.0123 1.44536 15.9929 1.69703C15.7712 4.56959 14.8118 11.5405 14.3237 14.7578C14.1172 16.1192 13.7105 16.5757 13.3169 16.6203C12.4613 16.7174 11.8116 15.9231 10.9829 15.2534C9.68625 14.2053 8.9537 13.5528 7.69503 12.5301C6.24043 11.3481 7.18339 10.6985 8.01236 9.63682C8.22931 9.35897 11.999 5.13108 12.0719 4.74754C12.0811 4.69958 12.0895 4.52078 12.0034 4.42636C11.9172 4.33195 11.7901 4.36423 11.6983 4.38991C11.5683 4.42631 9.49681 6.11457 5.48389 9.4547C4.89591 9.95256 4.36333 10.1951 3.88616 10.1824C3.36012 10.1684 2.34822 9.81566 1.59598 9.51415C0.673328 9.14434 -0.0599784 8.94881 0.00387615 8.32075C0.0371355 7.99362 0.402482 7.65906 1.09992 7.31708Z" fill="#272727"/>
</svg>
