<svg width="21" height="22" viewBox="0 0 21 22" fill="none" xmlns="http://www.w3.org/2000/svg">
<path fill-rule="evenodd" clip-rule="evenodd" d="M0 21.5693C0.568792 19.6972 1.22806 17.9173 1.83078 16.0798C-2.16456 8.95593 2.77988 0.93617 9.47689 0.269989C15.8 -0.359078 20.9842 4.27114 21 10.5903C21.0164 17.2579 14.6734 22.8568 7.53841 20.5811C7.00021 20.4095 6.33426 19.8501 5.70763 19.8126C4.83188 19.76 3.68417 20.401 2.79991 20.6909C1.83067 21.0088 0.987874 21.3273 0 21.5693ZM5.92304 17.8364C11.6847 21.4013 18.5839 17.4028 19.1692 11.5784C19.6989 6.3057 15.5692 1.61421 10.0153 2.02663C3.67469 2.49736 -0.133985 10.2135 3.76915 15.8602C3.42363 16.8255 3.1003 17.8134 2.79991 18.8246C3.85779 18.5123 4.83296 18.1158 5.92304 17.8364Z" fill="#272727"/>
<path fill-rule="evenodd" clip-rule="evenodd" d="M8.18466 5.64968C8.79072 6.94207 9.72819 8.85365 8.18466 9.71199C8.96854 11.4014 10.2646 12.5688 11.9538 13.3351C12.5156 12.9563 12.8845 12.3808 13.3539 11.9079C14.3344 12.2989 15.251 12.755 16.0461 13.3351C16.1278 15.2238 14.5666 15.9223 13.2462 15.8602C10.4604 15.7296 6.63155 12.1415 5.70776 9.49238C5.15954 7.92054 5.79005 4.9141 8.18466 5.64968Z" fill="#272727"/>
</svg>
